<?xml version="1.0" encoding="UTF-8"?>
<svg width="40px" height="40px" viewBox="0 0 40 40" version="1.1" xmlns="http://www.w3.org/2000/svg" xmlns:xlink="http://www.w3.org/1999/xlink">
    <title>Shape</title>
    <defs>
        <linearGradient x1="50%" y1="-1.91428435e-14%" x2="49.999997%" y2="100%" id="linearGradient-1">
            <stop stop-color="#4F8CFF" offset="0%"></stop>
            <stop stop-color="#FF4F4F" offset="100%"></stop>
        </linearGradient>
    </defs>
    <g id="web" stroke="none" stroke-width="1" fill="none" fill-rule="evenodd">
        <g id="main" transform="translate(-100.000000, -100.000000)" fill="url(#linearGradient-1)">
            <g id="Header" transform="translate(-522.000000, -722.000000)">
                <g id="Logo" transform="translate(622.000000, 822.000000)">
                    <path d="M38.9402597,26.6597403 C38.5662338,26.3376623 23.6467532,15.5220779 23.6467532,15.5220779 C23.625974,15.5012987 23.6051948,15.4805195 23.5948052,15.4701299 C23.0233766,14.8883117 23.0545455,14.3896104 23.012987,13.5168831 C23.012987,13.5168831 22.9194805,6.34805195 22.7844156,3.95844156 C22.6493506,1.56883117 21.4025974,0 19.9480519,0 L19.9480519,0 L19.9480519,0 C18.4935065,0 17.2571429,1.55844156 17.1220779,3.94805195 C16.987013,6.33766234 16.8935065,13.5064935 16.8935065,13.5064935 C16.8519481,14.3792208 16.8831169,14.8779221 16.3116883,15.4597403 C16.2909091,15.4805195 16.2701299,15.5012987 16.2597403,15.5116883 C16.2597403,15.5116883 1.35064935,26.3272727 0.966233766,26.6493506 C0.581818182,26.9714286 0.0103896104,27.4597403 0.0103896104,28.5402597 C0.0103896104,29.8077922 0.384415584,29.9636364 1.11168831,29.7454545 C1.11168831,29.7454545 15.6779221,25.6415584 16.2181818,25.5064935 C16.7584416,25.3714286 17.038961,25.5688312 17.0805195,26.2857143 C17.1220779,27.0025974 17.1636364,31.1064935 17.174026,31.5844156 C17.1844156,32.0623377 17.1116883,32.0727273 16.8727273,32.3532468 L13.5480519,36.5922078 C13.3714286,36.8 13.2675325,37.0597403 13.2675325,37.3506494 L13.2675325,38.638961 C13.2675325,39.2935065 13.5584416,39.3974026 14.1194805,39.1480519 C14.6805195,38.8987013 17.5064935,37.3402597 17.5064935,37.3402597 C17.5792208,37.3090909 17.9844156,37.1428571 18.1714286,37.1428571 C18.6077922,37.1428571 19.0025974,37.1324675 19.0857143,37.787013 C19.2207792,38.9714286 19.5948052,39.8961039 19.9688312,39.8961039 L19.9688312,39.8961039 L19.9688312,39.8961039 C20.3428571,39.8961039 20.7168831,38.9714286 20.8519481,37.787013 C20.9246753,37.1324675 21.3298701,37.1428571 21.7662338,37.1428571 C21.9532468,37.1428571 22.3584416,37.3090909 22.4311688,37.3402597 C22.4311688,37.3402597 25.2571429,38.8987013 25.8181818,39.1480519 C26.3792208,39.3974026 26.6701299,39.2935065 26.6701299,38.638961 L26.6701299,37.3506494 C26.6701299,37.0597403 26.5662338,36.7896104 26.3896104,36.5922078 L23.0649351,32.3532468 C22.825974,32.0727273 22.7636364,32.0519481 22.7636364,31.5844156 C22.7636364,31.1168831 22.8155844,27.0025974 22.8571429,26.2857143 C22.8987013,25.5688312 23.1792208,25.3714286 23.7194805,25.5064935 C24.2597403,25.6415584 38.825974,29.7454545 38.825974,29.7454545 C39.5636364,29.9636364 39.9272727,29.8077922 39.9272727,28.5402597 C39.8961039,27.4701299 39.3246753,26.9818182 38.9402597,26.6597403 L38.9402597,26.6597403 Z" id="Shape"></path>
                </g>
            </g>
        </g>
    </g>
</svg>